<?xml version="1.0" encoding="UTF-8" standalone="no"?>
<svg
   xmlns:dc="http://purl.org/dc/elements/1.1/"
   xmlns:cc="http://creativecommons.org/ns#"
   xmlns:rdf="http://www.w3.org/1999/02/22-rdf-syntax-ns#"
   xmlns:svg="http://www.w3.org/2000/svg"
   xmlns="http://www.w3.org/2000/svg"
   xmlns:sodipodi="http://sodipodi.sourceforge.net/DTD/sodipodi-0.dtd"
   xmlns:inkscape="http://www.inkscape.org/namespaces/inkscape"
   width="195"
   height="195"
   viewBox="0 0 195 195.00001"
   version="1.1"
   id="svg993"
   sodipodi:docname="soc_kv-зірка.svg"
   inkscape:version="1.0.2-2 (e86c870879, 2021-01-15)"
   inkscape:export-filename="D:\сайти\wone\soc_kv-зірка.png"
   inkscape:export-xdpi="254.12541"
   inkscape:export-ydpi="254.12541">
  <metadata
     id="metadata999">
    <rdf:RDF>
      <cc:Work
         rdf:about="">
        <dc:format>image/svg+xml</dc:format>
        <dc:type
           rdf:resource="http://purl.org/dc/dcmitype/StillImage" />
        <dc:title></dc:title>
      </cc:Work>
    </rdf:RDF>
  </metadata>
  <defs
     id="defs997">
    <filter
       inkscape:collect="always"
       style="color-interpolation-filters:sRGB"
       id="filter10479"
       x="-0.014753956"
       width="1.0295079"
       y="-0.014688586"
       height="1.0293772">
      <feGaussianBlur
         inkscape:collect="always"
         stdDeviation="1.1927788"
         id="feGaussianBlur10481" />
    </filter>
  </defs>
  <sodipodi:namedview
     pagecolor="#ffffff"
     bordercolor="#666666"
     borderopacity="1"
     objecttolerance="10"
     gridtolerance="10"
     guidetolerance="10"
     inkscape:pageopacity="0"
     inkscape:pageshadow="2"
     inkscape:window-width="1920"
     inkscape:window-height="1017"
     id="namedview995"
     showgrid="true"
     inkscape:zoom="3.9898997"
     inkscape:cx="66.768121"
     inkscape:cy="106.42123"
     inkscape:window-x="-8"
     inkscape:window-y="-8"
     inkscape:window-maximized="1"
     inkscape:current-layer="layer1"
     units="px"
     width="68px"
     inkscape:document-rotation="0">
    <inkscape:grid
       type="xygrid"
       id="grid58" />
  </sodipodi:namedview>
  <g
     inkscape:groupmode="layer"
     id="layer1"
     inkscape:label="Layer 1"
     style="opacity:0.90822785;filter:url(#filter10479)">
    <path
       sodipodi:type="star"
       style="fill:#d5f6ff"
       id="path9795"
       sodipodi:sides="5"
       sodipodi:cx="94.430399"
       sodipodi:cy="106.30486"
       sodipodi:r1="107.7033"
       sodipodi:r2="53.851646"
       sodipodi:arg1="1.1902899"
       sodipodi:arg2="1.8186085"
       inkscape:flatsided="false"
       inkscape:rounded="0"
       inkscape:randomized="0"
       d="M 134.43041,206.30486 81.221476,158.51141 11.685428,175.24882 40.697235,109.87513 3.2911879,48.914568 74.430401,56.304856 120.84824,1.8917403 135.80288,71.832877 201.89673,99.164288 140,135 Z"
       inkscape:transform-center-x="-8.8926153"
       inkscape:transform-center-y="-2.1037648"
       transform="matrix(0.98370757,0,-0.02671763,0.95341595,-2.0985754,-1.8036153)" />
    <path
       sodipodi:type="star"
       style="fill:#d5f6ff"
       id="path9800"
       sodipodi:sides="5"
       sodipodi:cx="40"
       sodipodi:cy="25"
       sodipodi:r1="10"
       sodipodi:r2="5"
       sodipodi:arg1="3.1415927"
       sodipodi:arg2="3.7699112"
       inkscape:flatsided="false"
       inkscape:rounded="0"
       inkscape:randomized="0"
       d="m 30,25 5.954915,-2.938926 0.954915,-6.571639 4.635255,4.755282 L 48.09017,19.122148 45,25 l 3.09017,5.877853 -6.545085,-1.12257 -4.635255,4.755282 -0.954915,-6.571639 z"
       inkscape:transform-center-x="0.95491508" />
    <path
       sodipodi:type="star"
       style="fill:#d5f6ff"
       id="path9802"
       sodipodi:sides="5"
       sodipodi:cx="170"
       sodipodi:cy="45"
       sodipodi:r1="15.811388"
       sodipodi:r2="7.905694"
       sodipodi:arg1="1.2490458"
       sodipodi:arg2="1.8773643"
       inkscape:flatsided="false"
       inkscape:rounded="0"
       inkscape:randomized="0"
       d="m 175,60 -7.38585,-7.46291 -10.33491,1.853447 4.81529,-9.330523 -4.95639,-9.256343 L 167.5,37.5 l 7.27169,-7.574181 1.58869,10.378912 9.45055,4.575242 -9.38,4.718191 z"
       inkscape:transform-center-x="-1.4745346"
       inkscape:transform-center-y="-0.03709059" />
    <path
       sodipodi:type="star"
       style="fill:#d5f6ff"
       id="path9804"
       sodipodi:sides="5"
       sodipodi:cx="170"
       sodipodi:cy="145"
       sodipodi:r1="5"
       sodipodi:r2="2.5"
       sodipodi:arg1="1.5707963"
       sodipodi:arg2="2.1991149"
       inkscape:flatsided="false"
       inkscape:rounded="0"
       inkscape:randomized="0"
       d="m 170,150 -1.46946,-2.97746 -3.28582,-0.47745 2.37764,-2.31763 -0.56129,-3.27254 L 170,142.5 l 2.93893,-1.54509 -0.56129,3.27255 2.37764,2.31762 -3.28582,0.47746 z"
       inkscape:transform-center-y="0.47745754" />
    <path
       sodipodi:type="star"
       style="fill:#d5f6ff"
       id="path9809"
       sodipodi:sides="5"
       sodipodi:cx="50"
       sodipodi:cy="180"
       sodipodi:r1="7.0710678"
       sodipodi:r2="3.5355339"
       sodipodi:arg1="0.78539816"
       sodipodi:arg2="1.4137167"
       inkscape:flatsided="false"
       inkscape:rounded="0"
       inkscape:randomized="0"
       d="m 55,185 -4.446921,-1.50799 -3.763277,2.80836 0.06001,-4.69527 -3.833827,-2.71126 L 47.5,177.5 l 1.393841,-4.48401 2.711258,3.83383 4.695269,-0.06 -2.808362,3.76328 z"
       inkscape:transform-center-x="0.34182186"
       inkscape:transform-center-y="-0.34182186" />
    <path
       sodipodi:type="star"
       style="fill:#d5f6ff"
       id="path9811"
       sodipodi:sides="5"
       sodipodi:cx="10"
       sodipodi:cy="100"
       sodipodi:r1="5"
       sodipodi:r2="2.5"
       sodipodi:arg1="1.5707963"
       sodipodi:arg2="2.1991149"
       inkscape:flatsided="false"
       inkscape:rounded="0"
       inkscape:randomized="0"
       d="M 10,105 8.5305368,102.02254 5.2447175,101.54509 7.6223587,99.227457 7.0610736,95.954915 10,97.5 l 2.938926,-1.545085 -0.561285,3.272543 2.377642,2.317622 -3.28582,0.47746 z"
       inkscape:transform-center-y="0.47745754" />
  </g>
  <g
     fill="none"
     fill-rule="evenodd"
     id="g991"
     transform="translate(50.024,44.287)">
    <g
       fill-rule="nonzero"
       id="g977" />
    <path
       d="m 44.976,20.713 c 0,7.68 -6.212,13.893 -13.884,13.893 -7.672,0 -13.889,-6.213 -13.889,-13.893 0,-7.656 6.217,-13.88 13.89,-13.88 7.671,0 13.883,6.224 13.883,13.88"
       stroke="#7076F0"
       stroke-width="3"
       id="path979"
       style="stroke:#0da6ee;stroke-width:4.3;stroke-miterlimit:4;stroke-dasharray:none;stroke-opacity:1" />
    <path
       d="m 31.092,27.647 c -3.825,0 -6.924,-3.105 -6.924,-6.934 0,-3.816 3.099,-6.916 6.924,-6.916 3.825,0 6.93,3.1 6.93,6.916 a 6.933,6.933 0 0 1 -6.93,6.934 z"
       fill="#C9CCFA"
       id="path981"
       style="fill:#98d3f8;fill-opacity:1" />
    <g
       fill="#0a0b09"
       id="g989">
      <path
         d="M 14.868,11.211 14.119,11.259 13.847,6.973 6.858,2.93 l 0.18,2.89 8.205,4.74 -0.375,0.65 -0.749,0.048 0.749,-0.048 -0.375,0.65 L 5.94,6.918 A 0.75,0.75 0 0 1 5.567,6.316 L 5.274,1.628 A 0.746,0.746 0 0 1 5.628,0.944 0.747,0.747 0 0 1 6.398,0.932 l 8.548,4.943 a 0.75,0.75 0 0 1 0.373,0.602 l 0.297,4.687 a 0.748,0.748 0 0 1 -1.124,0.697 l 0.376,-0.65"
         id="path983" />
      <path
         d="m 14.617,11.11 0.335,0.672 -4.207,2.096 a 0.753,0.753 0 0 1 -0.71,-0.022 L 1.492,8.916 A 0.752,0.752 0 0 1 1.534,7.596 L 5.737,5.507 a 0.751,0.751 0 0 1 0.708,0.022 l 8.547,4.932 a 0.752,0.752 0 0 1 -0.04,1.32 l -0.335,-0.67 -0.375,0.65 -8.198,-4.731 -2.592,1.287 6.985,4.039 3.846,-1.916 0.334,0.67 -0.375,0.65 0.375,-0.65"
         id="path985" />
      <path
         d="m 30.636,21.255 a 0.912,0.912 0 0 0 1.26,-0.338 0.916,0.916 0 0 0 -0.338,-1.262 L 2.296,2.758 a 0.935,0.935 0 0 0 -1.268,0.34 0.924,0.924 0 0 0 0.34,1.267 l 29.268,16.89"
         id="path987" />
    </g>
  </g>
  <text
     xml:space="preserve"
     style="font-style:normal;font-variant:normal;font-weight:normal;font-stretch:normal;font-size:40px;line-height:0;font-family:'Microsoft YaHei';-inkscape-font-specification:'Microsoft YaHei';fill:#000000;fill-opacity:1;stroke:none"
     x="39.152508"
     y="78.374855"
     id="text1580"><tspan
       sodipodi:role="line"
       id="tspan1578"
       x="39.152508"
       y="78.374855"
       style="font-style:normal;font-variant:normal;font-weight:normal;font-stretch:normal;font-size:29.3333px;line-height:0.85;font-family:'Microsoft YaHei';-inkscape-font-specification:'Microsoft YaHei'"><tspan
         style="font-style:normal;font-variant:normal;font-weight:bold;font-stretch:normal;font-family:'Microsoft YaHei';-inkscape-font-specification:'Microsoft YaHei Bold'"
         id="tspan1608">w</tspan><tspan
         style="font-style:normal;font-variant:normal;font-weight:normal;font-stretch:normal;font-size:49.3333px;line-height:0.85;font-family:'Microsoft YaHei';-inkscape-font-specification:'Microsoft YaHei'"
         id="tspan1604" /></tspan></text>
  <text
     xml:space="preserve"
     style="font-style:normal;font-variant:normal;font-weight:normal;font-stretch:normal;font-size:21.1726px;line-height:0;font-family:'Microsoft YaHei';-inkscape-font-specification:'Microsoft YaHei';stroke-width:1.58795"
     x="39.468189"
     y="100.41779"
     id="text1584"
     transform="scale(0.98963936,1.0104691)"><tspan
       style="font-style:normal;font-variant:normal;font-weight:normal;font-stretch:normal;font-size:21.1726px;line-height:1.25;font-family:'Microsoft YaHei';-inkscape-font-specification:'Microsoft YaHei';fill:#0da6ee;fill-opacity:1;stroke-width:1.58795"
       sodipodi:role="line"
       id="tspan1596"
       x="39.468189"
       y="100.41779">професійні</tspan><tspan
       sodipodi:role="line"
       x="39.468189"
       y="125.15962"
       style="font-style:normal;font-variant:normal;font-weight:normal;font-stretch:normal;font-size:31.7591px;line-height:0.55;font-family:'Microsoft YaHei';-inkscape-font-specification:'Microsoft YaHei';letter-spacing:0px;fill:#0da6ee;fill-opacity:1;stroke-width:1.58795"
       id="tspan1590">поради</tspan></text>
  <text
     xml:space="preserve"
     style="font-style:normal;font-variant:normal;font-weight:normal;font-stretch:normal;font-size:40px;line-height:0;font-family:'Microsoft YaHei';-inkscape-font-specification:'Microsoft YaHei';fill:#000000;fill-opacity:1;stroke:none"
     x="96.573151"
     y="78.521675"
     id="text56"><tspan
       sodipodi:role="line"
       id="tspan54"
       x="96.573151"
       y="78.521675"
       style="font-style:normal;font-variant:normal;font-weight:normal;font-stretch:normal;font-size:29.3333px;line-height:0.85;font-family:'Microsoft YaHei';-inkscape-font-specification:'Microsoft YaHei'"><tspan
         style="font-style:normal;font-variant:normal;font-weight:normal;font-stretch:normal;font-size:49.3333px;line-height:0.85;font-family:'Microsoft YaHei';-inkscape-font-specification:'Microsoft YaHei'"
         id="tspan52">ne</tspan></tspan></text>
</svg>
