<?xml version="1.0" encoding="UTF-8" standalone="no"?>
<svg
   xmlns:dc="http://purl.org/dc/elements/1.1/"
   xmlns:cc="http://creativecommons.org/ns#"
   xmlns:rdf="http://www.w3.org/1999/02/22-rdf-syntax-ns#"
   xmlns:svg="http://www.w3.org/2000/svg"
   xmlns="http://www.w3.org/2000/svg"
   xmlns:sodipodi="http://sodipodi.sourceforge.net/DTD/sodipodi-0.dtd"
   xmlns:inkscape="http://www.inkscape.org/namespaces/inkscape"
   width="249"
   height="37"
   viewBox="0 0 249 37"
   version="1.1"
   id="svg993"
   sodipodi:docname="+logo.svg"
   inkscape:version="1.0.2-2 (e86c870879, 2021-01-15)">
  <metadata
     id="metadata999">
    <rdf:RDF>
      <cc:Work
         rdf:about="">
        <dc:format>image/svg+xml</dc:format>
        <dc:type
           rdf:resource="http://purl.org/dc/dcmitype/StillImage" />
        <dc:title></dc:title>
      </cc:Work>
    </rdf:RDF>
  </metadata>
  <defs
     id="defs997" />
  <sodipodi:namedview
     pagecolor="#ffffff"
     bordercolor="#666666"
     borderopacity="1"
     objecttolerance="10"
     gridtolerance="10"
     guidetolerance="10"
     inkscape:pageopacity="0"
     inkscape:pageshadow="2"
     inkscape:window-width="1920"
     inkscape:window-height="1017"
     id="namedview995"
     showgrid="false"
     inkscape:zoom="5.6425703"
     inkscape:cx="94.944632"
     inkscape:cy="18.5"
     inkscape:window-x="-8"
     inkscape:window-y="-8"
     inkscape:window-maximized="1"
     inkscape:current-layer="svg993" />
  <g
     fill="none"
     fill-rule="evenodd"
     id="g991">
    <g
       fill-rule="nonzero"
       id="g977" />
    <path
       d="M44.976 20.713c0 7.68-6.212 13.893-13.884 13.893-7.672 0-13.889-6.213-13.889-13.893 0-7.656 6.217-13.88 13.89-13.88 7.671 0 13.883 6.224 13.883 13.88"
       stroke="#7076F0"
       stroke-width="3"
       id="path979"
       style="stroke:#0da6ee;stroke-opacity:1" />
    <path
       d="M31.092 27.647c-3.825 0-6.924-3.105-6.924-6.934 0-3.816 3.099-6.916 6.924-6.916s6.93 3.1 6.93 6.916a6.933 6.933 0 01-6.93 6.934z"
       fill="#C9CCFA"
       id="path981"
       style="fill:#98d3f8;fill-opacity:1" />
    <g
       fill="#0A0B09"
       id="g989">
      <path
         d="M14.868 11.211l-.749.048-.272-4.286L6.858 2.93l.18 2.89 8.205 4.74-.375.65-.749.048.749-.048-.375.65L5.94 6.918a.75.75 0 01-.373-.602l-.293-4.688a.746.746 0 01.354-.684.747.747 0 01.77-.012l8.548 4.943a.75.75 0 01.373.602l.297 4.687a.748.748 0 01-1.124.697l.376-.65"
         id="path983" />
      <path
         d="M14.617 11.11l.335.672-4.207 2.096a.753.753 0 01-.71-.022l-8.543-4.94a.752.752 0 01.042-1.32l4.203-2.089a.751.751 0 01.708.022l8.547 4.932a.752.752 0 01-.04 1.32l-.335-.67-.375.65L6.044 7.03 3.452 8.317l6.985 4.039 3.846-1.916.334.67-.375.65.375-.65"
         id="path985" />
      <path
         d="M30.636 21.255a.912.912 0 001.26-.338.916.916 0 00-.338-1.262L2.296 2.758a.935.935 0 00-1.268.34.924.924 0 00.34 1.267l29.268 16.89"
         id="path987" />
    </g>
  </g>
</svg>
