<?xml version="1.0" encoding="UTF-8" standalone="no"?>
<svg
   xmlns:dc="http://purl.org/dc/elements/1.1/"
   xmlns:cc="http://creativecommons.org/ns#"
   xmlns:rdf="http://www.w3.org/1999/02/22-rdf-syntax-ns#"
   xmlns:svg="http://www.w3.org/2000/svg"
   xmlns="http://www.w3.org/2000/svg"
   xmlns:sodipodi="http://sodipodi.sourceforge.net/DTD/sodipodi-0.dtd"
   xmlns:inkscape="http://www.inkscape.org/namespaces/inkscape"
   width="88.699997"
   height="35.099998"
   viewBox="0 0 88.699996 35.099999"
   version="1.1"
   id="svg993"
   sodipodi:docname="logo.svg"
   inkscape:version="1.0.2-2 (e86c870879, 2021-01-15)">
  <metadata
     id="metadata999">
    <rdf:RDF>
      <cc:Work
         rdf:about="">
        <dc:format>image/svg+xml</dc:format>
        <dc:type
           rdf:resource="http://purl.org/dc/dcmitype/StillImage" />
        <dc:title></dc:title>
      </cc:Work>
    </rdf:RDF>
  </metadata>
  <defs
     id="defs997" />
  <sodipodi:namedview
     pagecolor="#ffffff"
     bordercolor="#666666"
     borderopacity="1"
     objecttolerance="10"
     gridtolerance="10"
     guidetolerance="10"
     inkscape:pageopacity="0"
     inkscape:pageshadow="2"
     inkscape:window-width="1920"
     inkscape:window-height="1017"
     id="namedview995"
     showgrid="false"
     inkscape:zoom="5.6425703"
     inkscape:cx="96.953488"
     inkscape:cy="25.588968"
     inkscape:window-x="-8"
     inkscape:window-y="-8"
     inkscape:window-maximized="1"
     inkscape:current-layer="svg993"
     units="px"
     width="148px" />
  <g
     fill="none"
     fill-rule="evenodd"
     id="g991"
     transform="translate(7.4434168,-1.0633448)">
    <g
       fill-rule="nonzero"
       id="g977" />
    <path
       d="m 44.976,20.713 c 0,7.68 -6.212,13.893 -13.884,13.893 -7.672,0 -13.889,-6.213 -13.889,-13.893 0,-7.656 6.217,-13.88 13.89,-13.88 7.671,0 13.883,6.224 13.883,13.88"
       stroke="#7076F0"
       stroke-width="3"
       id="path979"
       style="stroke:#0da6ee;stroke-opacity:1" />
    <path
       d="m 31.092,27.647 c -3.825,0 -6.924,-3.105 -6.924,-6.934 0,-3.816 3.099,-6.916 6.924,-6.916 3.825,0 6.93,3.1 6.93,6.916 a 6.933,6.933 0 0 1 -6.93,6.934 z"
       fill="#C9CCFA"
       id="path981"
       style="fill:#98d3f8;fill-opacity:1" />
    <g
       fill="#0a0b09"
       id="g989">
      <path
         d="M 14.868,11.211 14.119,11.259 13.847,6.973 6.858,2.93 l 0.18,2.89 8.205,4.74 -0.375,0.65 -0.749,0.048 0.749,-0.048 -0.375,0.65 L 5.94,6.918 A 0.75,0.75 0 0 1 5.567,6.316 L 5.274,1.628 A 0.746,0.746 0 0 1 5.628,0.944 0.747,0.747 0 0 1 6.398,0.932 l 8.548,4.943 a 0.75,0.75 0 0 1 0.373,0.602 l 0.297,4.687 a 0.748,0.748 0 0 1 -1.124,0.697 l 0.376,-0.65"
         id="path983" />
      <path
         d="m 14.617,11.11 0.335,0.672 -4.207,2.096 a 0.753,0.753 0 0 1 -0.71,-0.022 L 1.492,8.916 A 0.752,0.752 0 0 1 1.534,7.596 L 5.737,5.507 a 0.751,0.751 0 0 1 0.708,0.022 l 8.547,4.932 a 0.752,0.752 0 0 1 -0.04,1.32 l -0.335,-0.67 -0.375,0.65 -8.198,-4.731 -2.592,1.287 6.985,4.039 3.846,-1.916 0.334,0.67 -0.375,0.65 0.375,-0.65"
         id="path985" />
      <path
         d="m 30.636,21.255 a 0.912,0.912 0 0 0 1.26,-0.338 0.916,0.916 0 0 0 -0.338,-1.262 L 2.296,2.758 a 0.935,0.935 0 0 0 -1.268,0.34 0.924,0.924 0 0 0 0.34,1.267 l 29.268,16.89"
         id="path987" />
    </g>
  </g>
  <text
     xml:space="preserve"
     style="font-style:normal;font-weight:normal;font-size:40px;line-height:1.25;font-family:sans-serif;fill:#000000;fill-opacity:1;stroke:none"
     x="-1.0633464"
     y="33.495373"
     id="text1580"><tspan
       sodipodi:role="line"
       id="tspan1578"
       x="-1.0633464"
       y="33.495373"
       style="font-size:29.3333px">w   <tspan
   style="font-size:32px"
   id="tspan1600"> </tspan>ne</tspan></text>
  <text
     xml:space="preserve"
     style="font-size:8px;line-height:0;font-family:sans-serif"
     x="54.230602"
     y="7.266192"
     id="text1584"><tspan
       style="font-size:6.13333px;line-height:1.25;fill:#0da6ee;fill-opacity:1"
       sodipodi:role="line"
       id="tspan1596"
       x="54.230602"
       y="7.266192">професійні</tspan><tspan
       sodipodi:role="line"
       x="54.230602"
       y="14.585646"
       style="font-size:9.33333px;line-height:0.55;letter-spacing:0px;fill:#0da6ee;fill-opacity:1"
       id="tspan1590">поради</tspan></text>
</svg>
